<mxfile host="app.diagrams.net" modified="2024-03-01T15:33:40.064Z" agent="Mozilla/5.0 (Windows NT 10.0; Win64; x64) AppleWebKit/537.36 (KHTML, like Gecko) Chrome/122.0.0.0 Safari/537.36" version="24.0.0" etag="D0pAKm9tZnKQwp7A1rd6" type="github">
  <diagram name="Page-1" id="A3I3vclXMB3vLQfhwXkD">
    <mxGraphModel>
      <root>
        <mxCell id="0" />
        <mxCell id="1" parent="0" />
      </root>
    </mxGraphModel>
  </diagram>
</mxfile>
